<svg width="361" height="214" viewBox="0 0 361 214" fill="none" xmlns="http://www.w3.org/2000/svg">
<path d="M26.6875 91H7.25L7.375 78.5625H26.6875C32.3125 78.5625 37.0208 77.3333 40.8125 74.875C44.6458 72.4167 47.5208 68.8958 49.4375 64.3125C51.3958 59.7292 52.375 54.2708 52.375 47.9375V43C52.375 38.0833 51.8125 33.7292 50.6875 29.9375C49.6042 26.1458 47.9792 22.9583 45.8125 20.375C43.6875 17.7917 41.0625 15.8333 37.9375 14.5C34.8542 13.1667 31.2917 12.5 27.25 12.5H6.875V0H27.25C33.2917 0 38.8125 1.02083 43.8125 3.0625C48.8125 5.0625 53.125 7.95833 56.75 11.75C60.4167 15.5417 63.2292 20.0833 65.1875 25.375C67.1458 30.6667 68.125 36.5833 68.125 43.125V47.9375C68.125 54.4792 67.1458 60.3958 65.1875 65.6875C63.2292 70.9792 60.4167 75.5208 56.75 79.3125C53.0833 83.0625 48.7083 85.9583 43.625 88C38.5833 90 32.9375 91 26.6875 91ZM15.9375 0V91H0.25V0H15.9375Z" fill="#1A1919"/>
<path d="M117.938 12.125L90.75 91H74.3125L108.562 0H119.062L117.938 12.125ZM140.688 91L113.438 12.125L112.25 0H122.812L157.188 91H140.688ZM139.375 57.25V69.6875H89.875V57.25H139.375Z" fill="#1A1919"/>
<path d="M167.375 0H199.562C206.479 0 212.375 1.04167 217.25 3.125C222.125 5.20833 225.854 8.29167 228.438 12.375C231.062 16.4167 232.375 21.4167 232.375 27.375C232.375 31.9167 231.542 35.9167 229.875 39.375C228.208 42.8333 225.854 45.75 222.812 48.125C219.771 50.4583 216.146 52.2708 211.938 53.5625L207.188 55.875H178.25L178.125 43.4375H199.812C203.562 43.4375 206.688 42.7708 209.188 41.4375C211.688 40.1042 213.562 38.2917 214.812 36C216.104 33.6667 216.75 31.0417 216.75 28.125C216.75 24.9583 216.125 22.2083 214.875 19.875C213.667 17.5 211.792 15.6875 209.25 14.4375C206.708 13.1458 203.479 12.5 199.562 12.5H183.062V91H167.375V0ZM219.312 91L197.938 50.125L214.375 50.0625L236.062 90.1875V91H219.312Z" fill="#1A1919"/>
<path d="M263.688 0V91H248V0H263.688ZM318.375 0L281.5 43.8125L260.5 66.0625L257.75 50.5L272.75 32L299.25 0H318.375ZM301.5 91L271.562 47.875L282.375 37.1875L320.125 91H301.5Z" fill="#1A1919"/>
<path d="M6.625 121H20.625L46.9375 191.188L73.1875 121H87.1875L52.4375 212H41.3125L6.625 121ZM0.25 121H13.5625L15.875 181.75V212H0.25V121ZM80.25 121H93.625V212H77.9375V181.75L80.25 121Z" fill="#1A1919"/>
<path d="M184.812 164V169C184.812 175.875 183.917 182.042 182.125 187.5C180.333 192.958 177.771 197.604 174.438 201.438C171.146 205.271 167.188 208.208 162.562 210.25C157.938 212.25 152.812 213.25 147.188 213.25C141.604 213.25 136.5 212.25 131.875 210.25C127.292 208.208 123.312 205.271 119.938 201.438C116.562 197.604 113.938 192.958 112.062 187.5C110.229 182.042 109.312 175.875 109.312 169V164C109.312 157.125 110.229 150.979 112.062 145.562C113.896 140.104 116.479 135.458 119.812 131.625C123.188 127.75 127.167 124.812 131.75 122.812C136.375 120.771 141.479 119.75 147.062 119.75C152.688 119.75 157.812 120.771 162.438 122.812C167.062 124.812 171.042 127.75 174.375 131.625C177.708 135.458 180.271 140.104 182.062 145.562C183.896 150.979 184.812 157.125 184.812 164ZM169.125 169V163.875C169.125 158.792 168.625 154.312 167.625 150.438C166.667 146.521 165.229 143.25 163.312 140.625C161.438 137.958 159.125 135.958 156.375 134.625C153.625 133.25 150.521 132.562 147.062 132.562C143.604 132.562 140.521 133.25 137.812 134.625C135.104 135.958 132.792 137.958 130.875 140.625C129 143.25 127.562 146.521 126.562 150.438C125.562 154.312 125.062 158.792 125.062 163.875V169C125.062 174.083 125.562 178.583 126.562 182.5C127.562 186.417 129.021 189.729 130.938 192.438C132.896 195.104 135.229 197.125 137.938 198.5C140.646 199.833 143.729 200.5 147.188 200.5C150.688 200.5 153.792 199.833 156.5 198.5C159.208 197.125 161.5 195.104 163.375 192.438C165.25 189.729 166.667 186.417 167.625 182.5C168.625 178.583 169.125 174.083 169.125 169Z" fill="#1A1919"/>
<path d="M273.062 164V169C273.062 175.875 272.167 182.042 270.375 187.5C268.583 192.958 266.021 197.604 262.688 201.438C259.396 205.271 255.438 208.208 250.812 210.25C246.188 212.25 241.062 213.25 235.438 213.25C229.854 213.25 224.75 212.25 220.125 210.25C215.542 208.208 211.562 205.271 208.188 201.438C204.812 197.604 202.188 192.958 200.312 187.5C198.479 182.042 197.562 175.875 197.562 169V164C197.562 157.125 198.479 150.979 200.312 145.562C202.146 140.104 204.729 135.458 208.062 131.625C211.438 127.75 215.417 124.812 220 122.812C224.625 120.771 229.729 119.75 235.312 119.75C240.938 119.75 246.062 120.771 250.688 122.812C255.312 124.812 259.292 127.75 262.625 131.625C265.958 135.458 268.521 140.104 270.312 145.562C272.146 150.979 273.062 157.125 273.062 164ZM257.375 169V163.875C257.375 158.792 256.875 154.312 255.875 150.438C254.917 146.521 253.479 143.25 251.562 140.625C249.688 137.958 247.375 135.958 244.625 134.625C241.875 133.25 238.771 132.562 235.312 132.562C231.854 132.562 228.771 133.25 226.062 134.625C223.354 135.958 221.042 137.958 219.125 140.625C217.25 143.25 215.812 146.521 214.812 150.438C213.812 154.312 213.312 158.792 213.312 163.875V169C213.312 174.083 213.812 178.583 214.812 182.5C215.812 186.417 217.271 189.729 219.188 192.438C221.146 195.104 223.479 197.125 226.188 198.5C228.896 199.833 231.979 200.5 235.438 200.5C238.938 200.5 242.042 199.833 244.75 198.5C247.458 197.125 249.75 195.104 251.625 192.438C253.5 189.729 254.917 186.417 255.875 182.5C256.875 178.583 257.375 174.083 257.375 169Z" fill="#1A1919"/>
<path d="M360.938 121V212H345.25L304.438 146.812V212H288.75V121H304.438L345.375 186.312V121H360.938Z" fill="#1A1919"/>
</svg>
